M48
; DRILL file {KiCad 8.0.5-8.0.5-0~ubuntu20.04.1} date 2025-01-24T13:48:23+0000
; FORMAT={-:-/ absolute / metric / decimal}
; #@! TF.CreationDate,2025-01-24T13:48:23+00:00
; #@! TF.GenerationSoftware,Kicad,Pcbnew,8.0.5-8.0.5-0~ubuntu20.04.1
; #@! TF.FileFunction,Plated,1,2,PTH
FMAT,2
METRIC
; #@! TA.AperFunction,Plated,PTH,ComponentDrill
T1C1.000
%
G90
G05
T1
X35.5Y-34.84
X35.5Y-37.38
X35.5Y-39.92
X35.5Y-42.46
X35.5Y-45.0
X38.04Y-34.84
X38.04Y-37.38
X38.04Y-39.92
X38.04Y-42.46
X38.04Y-45.0
X41.42Y-32.0
X43.46Y-51.0
X43.96Y-32.0
X46.0Y-51.0
X46.5Y-32.0
X48.54Y-51.0
X52.46Y-37.42
X52.46Y-39.96
X52.46Y-42.5
X55.0Y-37.42
X55.0Y-39.96
X55.0Y-42.5
M30
