%TF.GenerationSoftware,KiCad,Pcbnew,8.0.5-8.0.5-0~ubuntu20.04.1*%
%TF.CreationDate,2025-01-24T13:48:23+00:00*%
%TF.ProjectId,wchlinke-tagconnect,7763686c-696e-46b6-952d-746167636f6e,rev?*%
%TF.SameCoordinates,Original*%
%TF.FileFunction,Copper,L2,Bot*%
%TF.FilePolarity,Positive*%
%FSLAX46Y46*%
G04 Gerber Fmt 4.6, Leading zero omitted, Abs format (unit mm)*
G04 Created by KiCad (PCBNEW 8.0.5-8.0.5-0~ubuntu20.04.1) date 2025-01-24 13:48:23*
%MOMM*%
%LPD*%
G01*
G04 APERTURE LIST*
%TA.AperFunction,ComponentPad*%
%ADD10R,1.700000X1.700000*%
%TD*%
%TA.AperFunction,ComponentPad*%
%ADD11O,1.700000X1.700000*%
%TD*%
%TA.AperFunction,ComponentPad*%
%ADD12C,1.700000*%
%TD*%
G04 APERTURE END LIST*
D10*
%TO.P,JP1,1,A*%
%TO.N,+3V3*%
X43460000Y-51000000D03*
D11*
%TO.P,JP1,2,C*%
%TO.N,Net-(D1-A)*%
X46000000Y-51000000D03*
%TO.P,JP1,3,B*%
%TO.N,+5V*%
X48540000Y-51000000D03*
%TD*%
%TO.P,J1,1,Pin_1*%
%TO.N,/RST*%
%TA.AperFunction,ComponentPad*%
G36*
G01*
X38890000Y-44400000D02*
X38890000Y-45600000D01*
G75*
G02*
X38640000Y-45850000I-250000J0D01*
G01*
X37440000Y-45850000D01*
G75*
G02*
X37190000Y-45600000I0J250000D01*
G01*
X37190000Y-44400000D01*
G75*
G02*
X37440000Y-44150000I250000J0D01*
G01*
X38640000Y-44150000D01*
G75*
G02*
X38890000Y-44400000I0J-250000D01*
G01*
G37*
%TD.AperFunction*%
D12*
%TO.P,J1,2,Pin_2*%
%TO.N,+5V*%
X35500000Y-45000000D03*
%TO.P,J1,3,Pin_3*%
%TO.N,+3V3*%
X38040000Y-42460000D03*
%TO.P,J1,4,Pin_4*%
X35500000Y-42460000D03*
%TO.P,J1,5,Pin_5*%
%TO.N,GND*%
X38040000Y-39920000D03*
%TO.P,J1,6,Pin_6*%
%TO.N,/SWDIO*%
X35500000Y-39920000D03*
%TO.P,J1,7,Pin_7*%
%TO.N,/U_TX*%
X38040000Y-37380000D03*
%TO.P,J1,8,Pin_8*%
%TO.N,GND*%
X35500000Y-37380000D03*
%TO.P,J1,9,Pin_9*%
%TO.N,/U_RX*%
X38040000Y-34840000D03*
%TO.P,J1,10,Pin_10*%
%TO.N,/SWCLK*%
X35500000Y-34840000D03*
%TD*%
D10*
%TO.P,J3,1,Pin_1*%
%TO.N,GND*%
X41420000Y-32000000D03*
D11*
%TO.P,J3,2,Pin_2*%
%TO.N,/U_RX*%
X43960000Y-32000000D03*
%TO.P,J3,3,Pin_3*%
%TO.N,/U_TX*%
X46500000Y-32000000D03*
%TD*%
%TO.P,J2,1,Pin_1*%
%TO.N,/VREF*%
%TA.AperFunction,ComponentPad*%
G36*
G01*
X55850000Y-41900000D02*
X55850000Y-43100000D01*
G75*
G02*
X55600000Y-43350000I-250000J0D01*
G01*
X54400000Y-43350000D01*
G75*
G02*
X54150000Y-43100000I0J250000D01*
G01*
X54150000Y-41900000D01*
G75*
G02*
X54400000Y-41650000I250000J0D01*
G01*
X55600000Y-41650000D01*
G75*
G02*
X55850000Y-41900000I0J-250000D01*
G01*
G37*
%TD.AperFunction*%
D12*
%TO.P,J2,2,Pin_2*%
%TO.N,/SWDIO*%
X52460000Y-42500000D03*
%TO.P,J2,3,Pin_3*%
%TO.N,/RST*%
X55000000Y-39960000D03*
%TO.P,J2,4,Pin_4*%
%TO.N,/SWCLK*%
X52460000Y-39960000D03*
%TO.P,J2,5,Pin_5*%
%TO.N,GND*%
X55000000Y-37420000D03*
%TO.P,J2,6,Pin_6*%
%TO.N,unconnected-(J2-Pin_6-Pad6)*%
X52460000Y-37420000D03*
%TD*%
%TA.AperFunction,Conductor*%
%TO.N,GND*%
G36*
X37574075Y-40112993D02*
G01*
X37639901Y-40227007D01*
X37732993Y-40320099D01*
X37847007Y-40385925D01*
X37910590Y-40402962D01*
X37278625Y-41034925D01*
X37354594Y-41088119D01*
X37398219Y-41142696D01*
X37405413Y-41212194D01*
X37373890Y-41274549D01*
X37354595Y-41291269D01*
X37168594Y-41421508D01*
X37001505Y-41588597D01*
X36871575Y-41774158D01*
X36816998Y-41817783D01*
X36747500Y-41824977D01*
X36685145Y-41793454D01*
X36668425Y-41774158D01*
X36538494Y-41588597D01*
X36371402Y-41421506D01*
X36371396Y-41421501D01*
X36185842Y-41291575D01*
X36142217Y-41236998D01*
X36135023Y-41167500D01*
X36166546Y-41105145D01*
X36185842Y-41088425D01*
X36229557Y-41057815D01*
X36371401Y-40958495D01*
X36538495Y-40791401D01*
X36668732Y-40605403D01*
X36723307Y-40561780D01*
X36792805Y-40554586D01*
X36855160Y-40586109D01*
X36871880Y-40605405D01*
X36925073Y-40681373D01*
X37557037Y-40049409D01*
X37574075Y-40112993D01*
G37*
%TD.AperFunction*%
%TA.AperFunction,Conductor*%
G36*
X36614925Y-38141373D02*
G01*
X36668119Y-38065405D01*
X36722696Y-38021781D01*
X36792195Y-38014588D01*
X36854549Y-38046110D01*
X36871269Y-38065405D01*
X37001505Y-38251401D01*
X37168599Y-38418495D01*
X37353721Y-38548119D01*
X37354594Y-38548730D01*
X37398218Y-38603307D01*
X37405411Y-38672806D01*
X37373889Y-38735160D01*
X37354593Y-38751880D01*
X37278626Y-38805072D01*
X37278625Y-38805072D01*
X37910590Y-39437037D01*
X37847007Y-39454075D01*
X37732993Y-39519901D01*
X37639901Y-39612993D01*
X37574075Y-39727007D01*
X37557037Y-39790590D01*
X36925073Y-39158626D01*
X36871881Y-39234594D01*
X36817304Y-39278219D01*
X36747806Y-39285413D01*
X36685451Y-39253891D01*
X36668730Y-39234594D01*
X36538494Y-39048597D01*
X36371402Y-38881506D01*
X36371401Y-38881505D01*
X36203844Y-38764180D01*
X36185405Y-38751269D01*
X36141781Y-38696692D01*
X36134588Y-38627193D01*
X36166110Y-38564839D01*
X36185405Y-38548119D01*
X36261373Y-38494925D01*
X35629409Y-37862962D01*
X35692993Y-37845925D01*
X35807007Y-37780099D01*
X35900099Y-37687007D01*
X35965925Y-37572993D01*
X35982962Y-37509410D01*
X36614925Y-38141373D01*
G37*
%TD.AperFunction*%
%TA.AperFunction,Conductor*%
G36*
X36854855Y-35506546D02*
G01*
X36871575Y-35525842D01*
X37001501Y-35711396D01*
X37001506Y-35711402D01*
X37168597Y-35878493D01*
X37168603Y-35878498D01*
X37354158Y-36008425D01*
X37397783Y-36063002D01*
X37404977Y-36132500D01*
X37373454Y-36194855D01*
X37354158Y-36211575D01*
X37168597Y-36341505D01*
X37001505Y-36508597D01*
X36871269Y-36694595D01*
X36816692Y-36738220D01*
X36747194Y-36745414D01*
X36684839Y-36713891D01*
X36668119Y-36694595D01*
X36614925Y-36618626D01*
X36614925Y-36618625D01*
X35982962Y-37250589D01*
X35965925Y-37187007D01*
X35900099Y-37072993D01*
X35807007Y-36979901D01*
X35692993Y-36914075D01*
X35629410Y-36897037D01*
X36261373Y-36265073D01*
X36261373Y-36265072D01*
X36185405Y-36211880D01*
X36141780Y-36157304D01*
X36134586Y-36087805D01*
X36166108Y-36025451D01*
X36185399Y-36008734D01*
X36371401Y-35878495D01*
X36538495Y-35711401D01*
X36668425Y-35525842D01*
X36723002Y-35482217D01*
X36792500Y-35475023D01*
X36854855Y-35506546D01*
G37*
%TD.AperFunction*%
%TA.AperFunction,Conductor*%
G36*
X54534075Y-37612993D02*
G01*
X54599901Y-37727007D01*
X54692993Y-37820099D01*
X54807007Y-37885925D01*
X54870590Y-37902962D01*
X54238625Y-38534925D01*
X54314594Y-38588119D01*
X54358219Y-38642696D01*
X54365413Y-38712194D01*
X54333890Y-38774549D01*
X54314595Y-38791269D01*
X54128594Y-38921508D01*
X53961505Y-39088597D01*
X53831575Y-39274158D01*
X53776998Y-39317783D01*
X53707500Y-39324977D01*
X53645145Y-39293454D01*
X53628425Y-39274158D01*
X53498494Y-39088597D01*
X53331402Y-38921506D01*
X53331396Y-38921501D01*
X53145842Y-38791575D01*
X53102217Y-38736998D01*
X53095023Y-38667500D01*
X53126546Y-38605145D01*
X53145842Y-38588425D01*
X53222248Y-38534925D01*
X53331401Y-38458495D01*
X53498495Y-38291401D01*
X53628732Y-38105403D01*
X53683307Y-38061780D01*
X53752805Y-38054586D01*
X53815160Y-38086109D01*
X53831880Y-38105405D01*
X53885073Y-38181373D01*
X54517037Y-37549409D01*
X54534075Y-37612993D01*
G37*
%TD.AperFunction*%
%TA.AperFunction,Conductor*%
G36*
X60504043Y-28000765D02*
G01*
X60752895Y-28017075D01*
X60768953Y-28019190D01*
X60976105Y-28060395D01*
X61009535Y-28067045D01*
X61025202Y-28071243D01*
X61194947Y-28128863D01*
X61257481Y-28150091D01*
X61272458Y-28156294D01*
X61481799Y-28259529D01*
X61492460Y-28264787D01*
X61506508Y-28272897D01*
X61710464Y-28409177D01*
X61723328Y-28419048D01*
X61907749Y-28580781D01*
X61919218Y-28592250D01*
X62080951Y-28776671D01*
X62090825Y-28789539D01*
X62227102Y-28993492D01*
X62235212Y-29007539D01*
X62343702Y-29227534D01*
X62349909Y-29242520D01*
X62428756Y-29474797D01*
X62432954Y-29490464D01*
X62480807Y-29731035D01*
X62482925Y-29747116D01*
X62499235Y-29995956D01*
X62499500Y-30004066D01*
X62499500Y-50495933D01*
X62499235Y-50504043D01*
X62482925Y-50752883D01*
X62480807Y-50768964D01*
X62432954Y-51009535D01*
X62428756Y-51025202D01*
X62349909Y-51257479D01*
X62343702Y-51272465D01*
X62235212Y-51492460D01*
X62227102Y-51506507D01*
X62090825Y-51710460D01*
X62080951Y-51723328D01*
X61919218Y-51907749D01*
X61907749Y-51919218D01*
X61723328Y-52080951D01*
X61710460Y-52090825D01*
X61506507Y-52227102D01*
X61492460Y-52235212D01*
X61272465Y-52343702D01*
X61257479Y-52349909D01*
X61025202Y-52428756D01*
X61009535Y-52432954D01*
X60768964Y-52480807D01*
X60752883Y-52482925D01*
X60504043Y-52499235D01*
X60495933Y-52499500D01*
X49079196Y-52499500D01*
X49012157Y-52479815D01*
X48966402Y-52427011D01*
X48956458Y-52357853D01*
X48985483Y-52294297D01*
X49026791Y-52263118D01*
X49217830Y-52174035D01*
X49411401Y-52038495D01*
X49578495Y-51871401D01*
X49714035Y-51677830D01*
X49813903Y-51463663D01*
X49875063Y-51235408D01*
X49895659Y-51000000D01*
X49875063Y-50764592D01*
X49813903Y-50536337D01*
X49714035Y-50322171D01*
X49708425Y-50314158D01*
X49578494Y-50128597D01*
X49411402Y-49961506D01*
X49411395Y-49961501D01*
X49217834Y-49825967D01*
X49217830Y-49825965D01*
X49217828Y-49825964D01*
X49003663Y-49726097D01*
X49003659Y-49726096D01*
X49003655Y-49726094D01*
X48775413Y-49664938D01*
X48775403Y-49664936D01*
X48540001Y-49644341D01*
X48539999Y-49644341D01*
X48304596Y-49664936D01*
X48304586Y-49664938D01*
X48076344Y-49726094D01*
X48076335Y-49726098D01*
X47862171Y-49825964D01*
X47862169Y-49825965D01*
X47668597Y-49961505D01*
X47501505Y-50128597D01*
X47371575Y-50314158D01*
X47316998Y-50357783D01*
X47247500Y-50364977D01*
X47185145Y-50333454D01*
X47168425Y-50314158D01*
X47038494Y-50128597D01*
X46871402Y-49961506D01*
X46871395Y-49961501D01*
X46677834Y-49825967D01*
X46677830Y-49825965D01*
X46677828Y-49825964D01*
X46463663Y-49726097D01*
X46463659Y-49726096D01*
X46463655Y-49726094D01*
X46235413Y-49664938D01*
X46235403Y-49664936D01*
X46000001Y-49644341D01*
X45999999Y-49644341D01*
X45764596Y-49664936D01*
X45764586Y-49664938D01*
X45536344Y-49726094D01*
X45536335Y-49726098D01*
X45322171Y-49825964D01*
X45322169Y-49825965D01*
X45128600Y-49961503D01*
X45006673Y-50083430D01*
X44945350Y-50116914D01*
X44875658Y-50111930D01*
X44819725Y-50070058D01*
X44802810Y-50039081D01*
X44753797Y-49907671D01*
X44753793Y-49907664D01*
X44667547Y-49792455D01*
X44667544Y-49792452D01*
X44552335Y-49706206D01*
X44552328Y-49706202D01*
X44417482Y-49655908D01*
X44417483Y-49655908D01*
X44357883Y-49649501D01*
X44357881Y-49649500D01*
X44357873Y-49649500D01*
X44357864Y-49649500D01*
X42562129Y-49649500D01*
X42562123Y-49649501D01*
X42502516Y-49655908D01*
X42367671Y-49706202D01*
X42367664Y-49706206D01*
X42252455Y-49792452D01*
X42252452Y-49792455D01*
X42166206Y-49907664D01*
X42166202Y-49907671D01*
X42115908Y-50042517D01*
X42109501Y-50102116D01*
X42109500Y-50102135D01*
X42109500Y-51897870D01*
X42109501Y-51897876D01*
X42115908Y-51957483D01*
X42166202Y-52092328D01*
X42166206Y-52092335D01*
X42252452Y-52207544D01*
X42252455Y-52207547D01*
X42344208Y-52276234D01*
X42386079Y-52332168D01*
X42391063Y-52401859D01*
X42357577Y-52463182D01*
X42296254Y-52496666D01*
X42269897Y-52499500D01*
X27504067Y-52499500D01*
X27495957Y-52499235D01*
X27247116Y-52482925D01*
X27231035Y-52480807D01*
X26990464Y-52432954D01*
X26974797Y-52428756D01*
X26742520Y-52349909D01*
X26727534Y-52343702D01*
X26507539Y-52235212D01*
X26493492Y-52227102D01*
X26291793Y-52092331D01*
X26289537Y-52090824D01*
X26276671Y-52080951D01*
X26092250Y-51919218D01*
X26080781Y-51907749D01*
X25919048Y-51723328D01*
X25909174Y-51710460D01*
X25887371Y-51677830D01*
X25772897Y-51506507D01*
X25764787Y-51492460D01*
X25658855Y-51277652D01*
X25656294Y-51272458D01*
X25650090Y-51257479D01*
X25571243Y-51025202D01*
X25567045Y-51009535D01*
X25559186Y-50970026D01*
X25519190Y-50768953D01*
X25517075Y-50752895D01*
X25500765Y-50504043D01*
X25500500Y-50495933D01*
X25500500Y-34839999D01*
X34144341Y-34839999D01*
X34144341Y-34840000D01*
X34164936Y-35075403D01*
X34164938Y-35075413D01*
X34226094Y-35303655D01*
X34226096Y-35303659D01*
X34226097Y-35303663D01*
X34230000Y-35312032D01*
X34325965Y-35517830D01*
X34325967Y-35517834D01*
X34434281Y-35672521D01*
X34461505Y-35711401D01*
X34628599Y-35878495D01*
X34814158Y-36008425D01*
X34814594Y-36008730D01*
X34858218Y-36063307D01*
X34865411Y-36132806D01*
X34833889Y-36195160D01*
X34814593Y-36211880D01*
X34738626Y-36265072D01*
X34738625Y-36265072D01*
X35370590Y-36897037D01*
X35307007Y-36914075D01*
X35192993Y-36979901D01*
X35099901Y-37072993D01*
X35034075Y-37187007D01*
X35017037Y-37250590D01*
X34385072Y-36618625D01*
X34326401Y-36702419D01*
X34226570Y-36916507D01*
X34226566Y-36916516D01*
X34165432Y-37144673D01*
X34165430Y-37144684D01*
X34144843Y-37379998D01*
X34144843Y-37380001D01*
X34165430Y-37615315D01*
X34165432Y-37615326D01*
X34226566Y-37843483D01*
X34226570Y-37843492D01*
X34326400Y-38057579D01*
X34326402Y-38057583D01*
X34385072Y-38141373D01*
X34385073Y-38141373D01*
X35017037Y-37509409D01*
X35034075Y-37572993D01*
X35099901Y-37687007D01*
X35192993Y-37780099D01*
X35307007Y-37845925D01*
X35370590Y-37862962D01*
X34738625Y-38494925D01*
X34814594Y-38548119D01*
X34858219Y-38602696D01*
X34865413Y-38672194D01*
X34833890Y-38734549D01*
X34814595Y-38751269D01*
X34628594Y-38881508D01*
X34461505Y-39048597D01*
X34325965Y-39242169D01*
X34325964Y-39242171D01*
X34226098Y-39456335D01*
X34226094Y-39456344D01*
X34164938Y-39684586D01*
X34164936Y-39684596D01*
X34144341Y-39919999D01*
X34144341Y-39920000D01*
X34164936Y-40155403D01*
X34164938Y-40155413D01*
X34226094Y-40383655D01*
X34226096Y-40383659D01*
X34226097Y-40383663D01*
X34244750Y-40423664D01*
X34325965Y-40597830D01*
X34325967Y-40597834D01*
X34346072Y-40626546D01*
X34461501Y-40791396D01*
X34461506Y-40791402D01*
X34628597Y-40958493D01*
X34628603Y-40958498D01*
X34814158Y-41088425D01*
X34857783Y-41143002D01*
X34864977Y-41212500D01*
X34833454Y-41274855D01*
X34814158Y-41291575D01*
X34628597Y-41421505D01*
X34461505Y-41588597D01*
X34325965Y-41782169D01*
X34325964Y-41782171D01*
X34226098Y-41996335D01*
X34226094Y-41996344D01*
X34164938Y-42224586D01*
X34164936Y-42224596D01*
X34144341Y-42459999D01*
X34144341Y-42460000D01*
X34164936Y-42695403D01*
X34164938Y-42695413D01*
X34226094Y-42923655D01*
X34226096Y-42923659D01*
X34226097Y-42923663D01*
X34244750Y-42963664D01*
X34325965Y-43137830D01*
X34325967Y-43137834D01*
X34353973Y-43177830D01*
X34461501Y-43331396D01*
X34461506Y-43331402D01*
X34628597Y-43498493D01*
X34628603Y-43498498D01*
X34814158Y-43628425D01*
X34857783Y-43683002D01*
X34864977Y-43752500D01*
X34833454Y-43814855D01*
X34814158Y-43831575D01*
X34628597Y-43961505D01*
X34461505Y-44128597D01*
X34325965Y-44322169D01*
X34325964Y-44322171D01*
X34226098Y-44536335D01*
X34226094Y-44536344D01*
X34164938Y-44764586D01*
X34164936Y-44764596D01*
X34144341Y-44999999D01*
X34144341Y-45000000D01*
X34164936Y-45235403D01*
X34164938Y-45235413D01*
X34226094Y-45463655D01*
X34226096Y-45463659D01*
X34226097Y-45463663D01*
X34310499Y-45644663D01*
X34325965Y-45677830D01*
X34325967Y-45677834D01*
X34432670Y-45830220D01*
X34461505Y-45871401D01*
X34628599Y-46038495D01*
X34671675Y-46068657D01*
X34822165Y-46174032D01*
X34822167Y-46174033D01*
X34822170Y-46174035D01*
X35036337Y-46273903D01*
X35264592Y-46335063D01*
X35441034Y-46350500D01*
X35499999Y-46355659D01*
X35500000Y-46355659D01*
X35500001Y-46355659D01*
X35558966Y-46350500D01*
X35735408Y-46335063D01*
X35963663Y-46273903D01*
X36177830Y-46174035D01*
X36371401Y-46038495D01*
X36538495Y-45871401D01*
X36538504Y-45871388D01*
X36539636Y-45870040D01*
X36540293Y-45869602D01*
X36542323Y-45867573D01*
X36542730Y-45867980D01*
X36597805Y-45831334D01*
X36667666Y-45830220D01*
X36727038Y-45867053D01*
X36752335Y-45910733D01*
X36755186Y-45919334D01*
X36847288Y-46068656D01*
X36971344Y-46192712D01*
X37120666Y-46284814D01*
X37287203Y-46339999D01*
X37389991Y-46350500D01*
X38690008Y-46350499D01*
X38792797Y-46339999D01*
X38959334Y-46284814D01*
X39108656Y-46192712D01*
X39232712Y-46068656D01*
X39324814Y-45919334D01*
X39379999Y-45752797D01*
X39390500Y-45650009D01*
X39390499Y-44349992D01*
X39379999Y-44247203D01*
X39324814Y-44080666D01*
X39232712Y-43931344D01*
X39108656Y-43807288D01*
X39015888Y-43750069D01*
X38959336Y-43715187D01*
X38959331Y-43715185D01*
X38959215Y-43715146D01*
X38950733Y-43712336D01*
X38893290Y-43672564D01*
X38866467Y-43608048D01*
X38878782Y-43539272D01*
X38907767Y-43502517D01*
X38907573Y-43502323D01*
X38909219Y-43500676D01*
X38910040Y-43499636D01*
X38911388Y-43498504D01*
X38911401Y-43498495D01*
X39078495Y-43331401D01*
X39214035Y-43137830D01*
X39313903Y-42923663D01*
X39375063Y-42695408D01*
X39395659Y-42460000D01*
X39375063Y-42224592D01*
X39313903Y-41996337D01*
X39214035Y-41782171D01*
X39208425Y-41774158D01*
X39078494Y-41588597D01*
X38911402Y-41421506D01*
X38911401Y-41421505D01*
X38725405Y-41291269D01*
X38681781Y-41236692D01*
X38674588Y-41167193D01*
X38706110Y-41104839D01*
X38725405Y-41088119D01*
X38801373Y-41034925D01*
X38169409Y-40402962D01*
X38232993Y-40385925D01*
X38347007Y-40320099D01*
X38440099Y-40227007D01*
X38505925Y-40112993D01*
X38522962Y-40049410D01*
X39154925Y-40681373D01*
X39154926Y-40681373D01*
X39213598Y-40597582D01*
X39213600Y-40597578D01*
X39313429Y-40383492D01*
X39313433Y-40383483D01*
X39374567Y-40155326D01*
X39374569Y-40155315D01*
X39395157Y-39920001D01*
X39395157Y-39919998D01*
X39374569Y-39684684D01*
X39374567Y-39684673D01*
X39313433Y-39456516D01*
X39313429Y-39456507D01*
X39213600Y-39242423D01*
X39213599Y-39242421D01*
X39154925Y-39158626D01*
X39154925Y-39158625D01*
X38522962Y-39790589D01*
X38505925Y-39727007D01*
X38440099Y-39612993D01*
X38347007Y-39519901D01*
X38232993Y-39454075D01*
X38169410Y-39437037D01*
X38801373Y-38805073D01*
X38801373Y-38805072D01*
X38725405Y-38751880D01*
X38681780Y-38697304D01*
X38674586Y-38627805D01*
X38706108Y-38565451D01*
X38725399Y-38548734D01*
X38911401Y-38418495D01*
X39078495Y-38251401D01*
X39214035Y-38057830D01*
X39313903Y-37843663D01*
X39375063Y-37615408D01*
X39392159Y-37419999D01*
X51104341Y-37419999D01*
X51104341Y-37420000D01*
X51124936Y-37655403D01*
X51124938Y-37655413D01*
X51186094Y-37883655D01*
X51186096Y-37883659D01*
X51186097Y-37883663D01*
X51267313Y-38057830D01*
X51285965Y-38097830D01*
X51285967Y-38097834D01*
X51316454Y-38141373D01*
X51421501Y-38291396D01*
X51421506Y-38291402D01*
X51588597Y-38458493D01*
X51588603Y-38458498D01*
X51774158Y-38588425D01*
X51817783Y-38643002D01*
X51824977Y-38712500D01*
X51793454Y-38774855D01*
X51774158Y-38791575D01*
X51588597Y-38921505D01*
X51421505Y-39088597D01*
X51285965Y-39282169D01*
X51285964Y-39282171D01*
X51186098Y-39496335D01*
X51186094Y-39496344D01*
X51124938Y-39724586D01*
X51124936Y-39724596D01*
X51104341Y-39959999D01*
X51104341Y-39960000D01*
X51124936Y-40195403D01*
X51124938Y-40195413D01*
X51186094Y-40423655D01*
X51186096Y-40423659D01*
X51186097Y-40423663D01*
X51190000Y-40432032D01*
X51285965Y-40637830D01*
X51285967Y-40637834D01*
X51316454Y-40681373D01*
X51421501Y-40831396D01*
X51421506Y-40831402D01*
X51588597Y-40998493D01*
X51588603Y-40998498D01*
X51774158Y-41128425D01*
X51817783Y-41183002D01*
X51824977Y-41252500D01*
X51793454Y-41314855D01*
X51774158Y-41331575D01*
X51588597Y-41461505D01*
X51421505Y-41628597D01*
X51285965Y-41822169D01*
X51285964Y-41822171D01*
X51186098Y-42036335D01*
X51186094Y-42036344D01*
X51124938Y-42264586D01*
X51124936Y-42264596D01*
X51104341Y-42499999D01*
X51104341Y-42500000D01*
X51124936Y-42735403D01*
X51124938Y-42735413D01*
X51186094Y-42963655D01*
X51186096Y-42963659D01*
X51186097Y-42963663D01*
X51250706Y-43102217D01*
X51285965Y-43177830D01*
X51285967Y-43177834D01*
X51392670Y-43330220D01*
X51421505Y-43371401D01*
X51588599Y-43538495D01*
X51631675Y-43568657D01*
X51782165Y-43674032D01*
X51782167Y-43674033D01*
X51782170Y-43674035D01*
X51996337Y-43773903D01*
X51996343Y-43773904D01*
X51996344Y-43773905D01*
X52037050Y-43784812D01*
X52224592Y-43835063D01*
X52401034Y-43850500D01*
X52459999Y-43855659D01*
X52460000Y-43855659D01*
X52460001Y-43855659D01*
X52518966Y-43850500D01*
X52695408Y-43835063D01*
X52923663Y-43773903D01*
X53137830Y-43674035D01*
X53331401Y-43538495D01*
X53498495Y-43371401D01*
X53498504Y-43371388D01*
X53499636Y-43370040D01*
X53500293Y-43369602D01*
X53502323Y-43367573D01*
X53502730Y-43367980D01*
X53557805Y-43331334D01*
X53627666Y-43330220D01*
X53687038Y-43367053D01*
X53712335Y-43410733D01*
X53715186Y-43419334D01*
X53807288Y-43568656D01*
X53931344Y-43692712D01*
X54080666Y-43784814D01*
X54247203Y-43839999D01*
X54349991Y-43850500D01*
X55650008Y-43850499D01*
X55752797Y-43839999D01*
X55919334Y-43784814D01*
X56068656Y-43692712D01*
X56192712Y-43568656D01*
X56284814Y-43419334D01*
X56339999Y-43252797D01*
X56350500Y-43150009D01*
X56350499Y-41849992D01*
X56342752Y-41774158D01*
X56339999Y-41747203D01*
X56339998Y-41747200D01*
X56306699Y-41646711D01*
X56284814Y-41580666D01*
X56192712Y-41431344D01*
X56068656Y-41307288D01*
X55954201Y-41236692D01*
X55919336Y-41215187D01*
X55919331Y-41215185D01*
X55919215Y-41215146D01*
X55910733Y-41212336D01*
X55853290Y-41172564D01*
X55826467Y-41108048D01*
X55838782Y-41039272D01*
X55867767Y-41002517D01*
X55867573Y-41002323D01*
X55869219Y-41000676D01*
X55870040Y-40999636D01*
X55871388Y-40998504D01*
X55871401Y-40998495D01*
X56038495Y-40831401D01*
X56174035Y-40637830D01*
X56273903Y-40423663D01*
X56335063Y-40195408D01*
X56355659Y-39960000D01*
X56335063Y-39724592D01*
X56273903Y-39496337D01*
X56174035Y-39282171D01*
X56168425Y-39274158D01*
X56038494Y-39088597D01*
X55871402Y-38921506D01*
X55871401Y-38921505D01*
X55685405Y-38791269D01*
X55641781Y-38736692D01*
X55634588Y-38667193D01*
X55666110Y-38604839D01*
X55685405Y-38588119D01*
X55761373Y-38534925D01*
X55129409Y-37902962D01*
X55192993Y-37885925D01*
X55307007Y-37820099D01*
X55400099Y-37727007D01*
X55465925Y-37612993D01*
X55482962Y-37549410D01*
X56114925Y-38181373D01*
X56114926Y-38181373D01*
X56173598Y-38097582D01*
X56173600Y-38097578D01*
X56273429Y-37883492D01*
X56273433Y-37883483D01*
X56334567Y-37655326D01*
X56334569Y-37655315D01*
X56355157Y-37420001D01*
X56355157Y-37419998D01*
X56334569Y-37184684D01*
X56334567Y-37184673D01*
X56273433Y-36956516D01*
X56273429Y-36956507D01*
X56173600Y-36742423D01*
X56173599Y-36742421D01*
X56114925Y-36658626D01*
X56114925Y-36658625D01*
X55482962Y-37290589D01*
X55465925Y-37227007D01*
X55400099Y-37112993D01*
X55307007Y-37019901D01*
X55192993Y-36954075D01*
X55129410Y-36937037D01*
X55761373Y-36305073D01*
X55761373Y-36305072D01*
X55677583Y-36246402D01*
X55677579Y-36246400D01*
X55463492Y-36146570D01*
X55463483Y-36146566D01*
X55235326Y-36085432D01*
X55235315Y-36085430D01*
X55000002Y-36064843D01*
X54999998Y-36064843D01*
X54764684Y-36085430D01*
X54764673Y-36085432D01*
X54536516Y-36146566D01*
X54536507Y-36146570D01*
X54322419Y-36246401D01*
X54238625Y-36305072D01*
X54870590Y-36937037D01*
X54807007Y-36954075D01*
X54692993Y-37019901D01*
X54599901Y-37112993D01*
X54534075Y-37227007D01*
X54517037Y-37290590D01*
X53885073Y-36658626D01*
X53831881Y-36734594D01*
X53777304Y-36778219D01*
X53707806Y-36785413D01*
X53645451Y-36753891D01*
X53628730Y-36734594D01*
X53498494Y-36548597D01*
X53331402Y-36381506D01*
X53331395Y-36381501D01*
X53137834Y-36245967D01*
X53137830Y-36245965D01*
X53137828Y-36245964D01*
X52923663Y-36146097D01*
X52923659Y-36146096D01*
X52923655Y-36146094D01*
X52695413Y-36084938D01*
X52695403Y-36084936D01*
X52460001Y-36064341D01*
X52459999Y-36064341D01*
X52224596Y-36084936D01*
X52224586Y-36084938D01*
X51996344Y-36146094D01*
X51996335Y-36146098D01*
X51782171Y-36245964D01*
X51782169Y-36245965D01*
X51588597Y-36381505D01*
X51421505Y-36548597D01*
X51285965Y-36742169D01*
X51285964Y-36742171D01*
X51186098Y-36956335D01*
X51186094Y-36956344D01*
X51124938Y-37184586D01*
X51124936Y-37184596D01*
X51104341Y-37419999D01*
X39392159Y-37419999D01*
X39395659Y-37380000D01*
X39393399Y-37354174D01*
X39389900Y-37314174D01*
X39375063Y-37144592D01*
X39324015Y-36954075D01*
X39313905Y-36916344D01*
X39313904Y-36916343D01*
X39313903Y-36916337D01*
X39214035Y-36702171D01*
X39208731Y-36694595D01*
X39078494Y-36508597D01*
X38911402Y-36341506D01*
X38911396Y-36341501D01*
X38725842Y-36211575D01*
X38682217Y-36156998D01*
X38675023Y-36087500D01*
X38706546Y-36025145D01*
X38725842Y-36008425D01*
X38748026Y-35992891D01*
X38911401Y-35878495D01*
X39078495Y-35711401D01*
X39214035Y-35517830D01*
X39313903Y-35303663D01*
X39375063Y-35075408D01*
X39395659Y-34840000D01*
X39375063Y-34604592D01*
X39313903Y-34376337D01*
X39214035Y-34162171D01*
X39208425Y-34154158D01*
X39078494Y-33968597D01*
X38911402Y-33801506D01*
X38911395Y-33801501D01*
X38717834Y-33665967D01*
X38717830Y-33665965D01*
X38717828Y-33665964D01*
X38503663Y-33566097D01*
X38503659Y-33566096D01*
X38503655Y-33566094D01*
X38275413Y-33504938D01*
X38275403Y-33504936D01*
X38040001Y-33484341D01*
X38039999Y-33484341D01*
X37804596Y-33504936D01*
X37804586Y-33504938D01*
X37576344Y-33566094D01*
X37576335Y-33566098D01*
X37362171Y-33665964D01*
X37362169Y-33665965D01*
X37168597Y-33801505D01*
X37001505Y-33968597D01*
X36871575Y-34154158D01*
X36816998Y-34197783D01*
X36747500Y-34204977D01*
X36685145Y-34173454D01*
X36668425Y-34154158D01*
X36538494Y-33968597D01*
X36371402Y-33801506D01*
X36371395Y-33801501D01*
X36177834Y-33665967D01*
X36177830Y-33665965D01*
X36177828Y-33665964D01*
X35963663Y-33566097D01*
X35963659Y-33566096D01*
X35963655Y-33566094D01*
X35735413Y-33504938D01*
X35735403Y-33504936D01*
X35500001Y-33484341D01*
X35499999Y-33484341D01*
X35264596Y-33504936D01*
X35264586Y-33504938D01*
X35036344Y-33566094D01*
X35036335Y-33566098D01*
X34822171Y-33665964D01*
X34822169Y-33665965D01*
X34628597Y-33801505D01*
X34461505Y-33968597D01*
X34325965Y-34162169D01*
X34325964Y-34162171D01*
X34226098Y-34376335D01*
X34226094Y-34376344D01*
X34164938Y-34604586D01*
X34164936Y-34604596D01*
X34144341Y-34839999D01*
X25500500Y-34839999D01*
X25500500Y-31102155D01*
X40070000Y-31102155D01*
X40070000Y-31750000D01*
X40986988Y-31750000D01*
X40954075Y-31807007D01*
X40920000Y-31934174D01*
X40920000Y-32065826D01*
X40954075Y-32192993D01*
X40986988Y-32250000D01*
X40070000Y-32250000D01*
X40070000Y-32897844D01*
X40076401Y-32957372D01*
X40076403Y-32957379D01*
X40126645Y-33092086D01*
X40126649Y-33092093D01*
X40212809Y-33207187D01*
X40212812Y-33207190D01*
X40327906Y-33293350D01*
X40327913Y-33293354D01*
X40462620Y-33343596D01*
X40462627Y-33343598D01*
X40522155Y-33349999D01*
X40522172Y-33350000D01*
X41170000Y-33350000D01*
X41170000Y-32433012D01*
X41227007Y-32465925D01*
X41354174Y-32500000D01*
X41485826Y-32500000D01*
X41612993Y-32465925D01*
X41670000Y-32433012D01*
X41670000Y-33350000D01*
X42317828Y-33350000D01*
X42317844Y-33349999D01*
X42377372Y-33343598D01*
X42377379Y-33343596D01*
X42512086Y-33293354D01*
X42512093Y-33293350D01*
X42627187Y-33207190D01*
X42627190Y-33207187D01*
X42713350Y-33092093D01*
X42713354Y-33092086D01*
X42762422Y-32960529D01*
X42804293Y-32904595D01*
X42869757Y-32880178D01*
X42938030Y-32895030D01*
X42966285Y-32916181D01*
X43088599Y-33038495D01*
X43165135Y-33092086D01*
X43282165Y-33174032D01*
X43282167Y-33174033D01*
X43282170Y-33174035D01*
X43496337Y-33273903D01*
X43724592Y-33335063D01*
X43895319Y-33350000D01*
X43959999Y-33355659D01*
X43960000Y-33355659D01*
X43960001Y-33355659D01*
X44024681Y-33350000D01*
X44195408Y-33335063D01*
X44423663Y-33273903D01*
X44637830Y-33174035D01*
X44831401Y-33038495D01*
X44998495Y-32871401D01*
X45128425Y-32685842D01*
X45183002Y-32642217D01*
X45252500Y-32635023D01*
X45314855Y-32666546D01*
X45331575Y-32685842D01*
X45461500Y-32871395D01*
X45461505Y-32871401D01*
X45628599Y-33038495D01*
X45705135Y-33092086D01*
X45822165Y-33174032D01*
X45822167Y-33174033D01*
X45822170Y-33174035D01*
X46036337Y-33273903D01*
X46264592Y-33335063D01*
X46435319Y-33350000D01*
X46499999Y-33355659D01*
X46500000Y-33355659D01*
X46500001Y-33355659D01*
X46564681Y-33350000D01*
X46735408Y-33335063D01*
X46963663Y-33273903D01*
X47177830Y-33174035D01*
X47371401Y-33038495D01*
X47538495Y-32871401D01*
X47674035Y-32677830D01*
X47773903Y-32463663D01*
X47835063Y-32235408D01*
X47855659Y-32000000D01*
X47835063Y-31764592D01*
X47773903Y-31536337D01*
X47674035Y-31322171D01*
X47668425Y-31314158D01*
X47538494Y-31128597D01*
X47371402Y-30961506D01*
X47371395Y-30961501D01*
X47177834Y-30825967D01*
X47177830Y-30825965D01*
X47106727Y-30792809D01*
X46963663Y-30726097D01*
X46963659Y-30726096D01*
X46963655Y-30726094D01*
X46735413Y-30664938D01*
X46735403Y-30664936D01*
X46500001Y-30644341D01*
X46499999Y-30644341D01*
X46264596Y-30664936D01*
X46264586Y-30664938D01*
X46036344Y-30726094D01*
X46036335Y-30726098D01*
X45822171Y-30825964D01*
X45822169Y-30825965D01*
X45628597Y-30961505D01*
X45461505Y-31128597D01*
X45331575Y-31314158D01*
X45276998Y-31357783D01*
X45207500Y-31364977D01*
X45145145Y-31333454D01*
X45128425Y-31314158D01*
X44998494Y-31128597D01*
X44831402Y-30961506D01*
X44831395Y-30961501D01*
X44637834Y-30825967D01*
X44637830Y-30825965D01*
X44566727Y-30792809D01*
X44423663Y-30726097D01*
X44423659Y-30726096D01*
X44423655Y-30726094D01*
X44195413Y-30664938D01*
X44195403Y-30664936D01*
X43960001Y-30644341D01*
X43959999Y-30644341D01*
X43724596Y-30664936D01*
X43724586Y-30664938D01*
X43496344Y-30726094D01*
X43496335Y-30726098D01*
X43282171Y-30825964D01*
X43282169Y-30825965D01*
X43088600Y-30961503D01*
X42966284Y-31083819D01*
X42904961Y-31117303D01*
X42835269Y-31112319D01*
X42779336Y-31070447D01*
X42762421Y-31039470D01*
X42713354Y-30907913D01*
X42713350Y-30907906D01*
X42627190Y-30792812D01*
X42627187Y-30792809D01*
X42512093Y-30706649D01*
X42512086Y-30706645D01*
X42377379Y-30656403D01*
X42377372Y-30656401D01*
X42317844Y-30650000D01*
X41670000Y-30650000D01*
X41670000Y-31566988D01*
X41612993Y-31534075D01*
X41485826Y-31500000D01*
X41354174Y-31500000D01*
X41227007Y-31534075D01*
X41170000Y-31566988D01*
X41170000Y-30650000D01*
X40522155Y-30650000D01*
X40462627Y-30656401D01*
X40462620Y-30656403D01*
X40327913Y-30706645D01*
X40327906Y-30706649D01*
X40212812Y-30792809D01*
X40212809Y-30792812D01*
X40126649Y-30907906D01*
X40126645Y-30907913D01*
X40076403Y-31042620D01*
X40076401Y-31042627D01*
X40070000Y-31102155D01*
X25500500Y-31102155D01*
X25500500Y-30004066D01*
X25500765Y-29995956D01*
X25504819Y-29934108D01*
X25517075Y-29747102D01*
X25519190Y-29731048D01*
X25567045Y-29490462D01*
X25571243Y-29474797D01*
X25594337Y-29406762D01*
X25650093Y-29242512D01*
X25656291Y-29227547D01*
X25764790Y-29007533D01*
X25772893Y-28993498D01*
X25909182Y-28789527D01*
X25919039Y-28776681D01*
X26080786Y-28592244D01*
X26092244Y-28580786D01*
X26276681Y-28419039D01*
X26289527Y-28409182D01*
X26493498Y-28272893D01*
X26507533Y-28264790D01*
X26727547Y-28156291D01*
X26742512Y-28150093D01*
X26906762Y-28094337D01*
X26974797Y-28071243D01*
X26990464Y-28067045D01*
X27231048Y-28019190D01*
X27247102Y-28017075D01*
X27495957Y-28000765D01*
X27504067Y-28000500D01*
X27565892Y-28000500D01*
X60434108Y-28000500D01*
X60495933Y-28000500D01*
X60504043Y-28000765D01*
G37*
%TD.AperFunction*%
%TD*%
M02*
