  0
SECTION
  2
HEADER
  9
$ANGBASE
  50
0.0
  9
$ANGDIR
  70
1
  9
$MEASUREMENT
  70
1
  0
ENDSEC
  0
SECTION
  2
TABLES
  0
TABLE
  2
LTYPE
  70
4
  0
LTYPE
  5
40F
  2
CONTINUOUS
  70
0
  3
Solid line
  72
65
  73
0
  40
0.0
  0
LTYPE
  5
410
  2
DASHDOT
 70
0
  3
Dash Dot ____ _ ____ _
 72
65
 73
4
 40
2.0
 49
1.25
 49
-0.25
 49
0.25
 49
-0.25
  0
LTYPE
  5
411
  2
DASHED
 70
0
  3
Dashed __ __ __ __ __
 72
65
 73
2
 40
0.75
 49
0.5
 49
-0.25
  0
LTYPE
  5
43B
  2
DOTTED
 70
0
  3
Dotted .  .  .  .
 72
65
 73
2
 40
0.2
 49
0.0
 49
-0.2
  0
ENDTAB
  0
TABLE
  2
STYLE
  70
4
  0
STYLE
  2
KICAD
  70
0
  40
0
  41
1
  42
1
  50
0
  71
0
  3
isocp.shx
  0
STYLE
  2
KICADB
  70
0
  40
0
  41
1
  42
1
  50
0
  71
0
  3
isocp.shx
  0
STYLE
  2
KICADI
  70
0
  40
0
  41
1
  42
1
  50
15
  71
0
  3
isocp.shx
  0
STYLE
  2
KICADBI
  70
0
  40
0
  41
1
  42
1
  50
15
  71
0
  3
isocp.shx
  0
ENDTAB
  0
TABLE
  2
LAYER
  70
1
  0
LAYER
  2
BLACK
  70
0
  62
7
  6
CONTINUOUS
  0
ENDTAB
  0
ENDSEC
  0
SECTION
  2
ENTITIES
0
ARC
8
BLACK
10
27.5
20
-50.5
40
2.5
50
-180.00000000
51
-90.00000000
0
ARC
8
BLACK
10
27.5
20
-30.
40
2.5
50
90.00000000
51
180.00000000
0
LINE
8
BLACK
6
CONTINUOUS
10
25.
20
-50.5
11
25.
21
-30.
0
LINE
8
BLACK
6
CONTINUOUS
10
27.5
20
-53.
11
60.5
21
-53.
0
LINE
8
BLACK
6
CONTINUOUS
10
63.
20
-50.5
11
63.
21
-30.
0
ARC
8
BLACK
10
60.5
20
-50.5
40
2.5
50
-90.00000000
51
-0.00000000
0
LINE
8
BLACK
6
CONTINUOUS
10
60.5
20
-27.5
11
27.5
21
-27.5
0
ARC
8
BLACK
10
60.5
20
-30.
40
2.5
50
0.00000000
51
90.00000000
0
CIRCLE
8
BLACK
10
43.4600000000000009
20
-51.
40
0.5
0
CIRCLE
8
BLACK
10
46.
20
-51.
40
0.5
0
CIRCLE
8
BLACK
10
48.5399999999999991
20
-51.
40
0.5
0
CIRCLE
8
BLACK
10
38.0399999999999991
20
-45.
40
0.5
0
CIRCLE
8
BLACK
10
35.5
20
-45.
40
0.5
0
CIRCLE
8
BLACK
10
38.0399999999999991
20
-42.4600000000000009
40
0.5
0
CIRCLE
8
BLACK
10
35.5
20
-42.4600000000000009
40
0.5
0
CIRCLE
8
BLACK
10
38.0399999999999991
20
-39.9200000000000017
40
0.5
0
CIRCLE
8
BLACK
10
35.5
20
-39.9200000000000017
40
0.5
0
CIRCLE
8
BLACK
10
38.0399999999999991
20
-37.3799999999999955
40
0.5
0
CIRCLE
8
BLACK
10
35.5
20
-37.3799999999999955
40
0.5
0
CIRCLE
8
BLACK
10
38.0399999999999991
20
-34.8399999999999963
40
0.5
0
CIRCLE
8
BLACK
10
35.5
20
-34.8399999999999963
40
0.5
0
CIRCLE
8
BLACK
10
41.4199999999999946
20
-32.
40
0.5
0
CIRCLE
8
BLACK
10
43.9600000000000009
20
-32.
40
0.5
0
CIRCLE
8
BLACK
10
46.5
20
-32.
40
0.5
0
CIRCLE
8
BLACK
10
55.
20
-42.5
40
0.5
0
CIRCLE
8
BLACK
10
52.4600000000000009
20
-42.5
40
0.5
0
CIRCLE
8
BLACK
10
55.
20
-39.9600000000000009
40
0.5
0
CIRCLE
8
BLACK
10
52.4600000000000009
20
-39.9600000000000009
40
0.5
0
CIRCLE
8
BLACK
10
55.
20
-37.4200000000000017
40
0.5
0
CIRCLE
8
BLACK
10
52.4600000000000009
20
-37.4200000000000017
40
0.5
0
CIRCLE
8
BLACK
10
43.4600000000000009
20
-51.
40
0.5
0
CIRCLE
8
BLACK
10
46.
20
-51.
40
0.5
0
CIRCLE
8
BLACK
10
48.5399999999999991
20
-51.
40
0.5
0
CIRCLE
8
BLACK
10
38.0399999999999991
20
-45.
40
0.5
0
CIRCLE
8
BLACK
10
35.5
20
-45.
40
0.5
0
CIRCLE
8
BLACK
10
38.0399999999999991
20
-42.4600000000000009
40
0.5
0
CIRCLE
8
BLACK
10
35.5
20
-42.4600000000000009
40
0.5
0
CIRCLE
8
BLACK
10
38.0399999999999991
20
-39.9200000000000017
40
0.5
0
CIRCLE
8
BLACK
10
35.5
20
-39.9200000000000017
40
0.5
0
CIRCLE
8
BLACK
10
38.0399999999999991
20
-37.3799999999999955
40
0.5
0
CIRCLE
8
BLACK
10
35.5
20
-37.3799999999999955
40
0.5
0
CIRCLE
8
BLACK
10
38.0399999999999991
20
-34.8399999999999963
40
0.5
0
CIRCLE
8
BLACK
10
35.5
20
-34.8399999999999963
40
0.5
0
CIRCLE
8
BLACK
10
41.4199999999999946
20
-32.
40
0.5
0
CIRCLE
8
BLACK
10
43.9600000000000009
20
-32.
40
0.5
0
CIRCLE
8
BLACK
10
46.5
20
-32.
40
0.5
0
CIRCLE
8
BLACK
10
55.
20
-42.5
40
0.5
0
CIRCLE
8
BLACK
10
52.4600000000000009
20
-42.5
40
0.5
0
CIRCLE
8
BLACK
10
55.
20
-39.9600000000000009
40
0.5
0
CIRCLE
8
BLACK
10
52.4600000000000009
20
-39.9600000000000009
40
0.5
0
CIRCLE
8
BLACK
10
55.
20
-37.4200000000000017
40
0.5
0
CIRCLE
8
BLACK
10
52.4600000000000009
20
-37.4200000000000017
40
0.5
  0
ENDSEC
  0
EOF
